<?xml version="1.0" ?><!DOCTYPE svg  PUBLIC '-//W3C//DTD SVG 1.1//EN'  'http://www.w3.org/Graphics/SVG/1.1/DTD/svg11.dtd'><svg enable-background="new 0 0 128 128" id="Слой_1" version="1.1" viewBox="0 0 128 128" xml:space="preserve" xmlns="http://www.w3.org/2000/svg" xmlns:xlink="http://www.w3.org/1999/xlink"><g><rect fill="#EFEB66" height="10" width="100" x="14.5" y="69"/><g opacity="0.5"><rect fill="#FFFFFF" height="10" width="10" x="14.5" y="69"/></g><g><path d="M114.5,89v10c0,5.5-4.5,10-10,10h-80c-5.5,0-10-4.5-10-10V89" fill="#EDB77F"/><g opacity="0.5"><path d="M24.5,99V89h-10v10c0,5.5,4.5,10,10,10h10C29,109,24.5,104.5,24.5,99z" fill="#FFFFFF"/></g><path d="M109.2,59c3,0,5.3-2.6,5-5.6c-2.8-25-24-34.4-49.7-34.4h0c-25.7,0-46.9,9.4-49.7,34.4c-0.3,3,2,5.6,5,5.6    H109.2z" fill="#EDB77F"/><g opacity="0.5"><path d="M64.5,19c-25.7,0-46.9,9.4-49.7,34.4c-0.3,3,2,5.6,5,5.6h10c-3,0-5.3-2.6-5-5.6     c2.6-23.3,21.3-33.1,44.7-34.3C67.9,19,66.2,19,64.5,19L64.5,19z" fill="#FFFFFF"/></g><path d="M113.3,69h6.2c2.8,0,5-2.2,5-5v0c0-2.8-2.2-5-5-5H9.5c-2.8,0-5,2.2-5,5v0c0,2.8,2.2,5,5,5H113.3" fill="#A86969"/><g opacity="0.5"><path d="M14.5,64c0-2.8,2.2-5,5-5h-10c-2.8,0-5,2.2-5,5s2.2,5,5,5h10C16.8,69,14.5,66.8,14.5,64z" fill="#FFFFFF"/></g><path d="M119.5,79H9.5c-2.8,0-5,2.2-5,5v0c0,2.8,2.2,5,5,5h110c2.8,0,5-2.2,5-5v0C124.5,81.2,122.3,79,119.5,79z" fill="#A86969"/><g opacity="0.5"><path d="M14.5,84c0-2.8,2.2-5,5-5h-10c-2.8,0-5,2.2-5,5s2.2,5,5,5h10C16.8,89,14.5,86.8,14.5,84z" fill="#FFFFFF"/></g></g><path d="M119,77.5h-3.5v-7h3.5c3.6,0,6.5-2.9,6.5-6.5c0-3.6-2.9-6.5-6.5-6.5h-4.8c0.8-1.3,1.2-2.8,1-4.3   c-2.6-23-20.7-35.7-51.2-35.7c-30.4,0-48.6,12.7-51.2,35.7c-0.2,1.5,0.2,3,1,4.3H9c-3.6,0-6.5,2.9-6.5,6.5c0,3.6,2.9,6.5,6.5,6.5   h3.5v7H9c-3.6,0-6.5,2.9-6.5,6.5s2.9,6.5,6.5,6.5h3.5V99c0,6.3,5.2,11.5,11.5,11.5h80c6.3,0,11.5-5.2,11.5-11.5v-8.5h3.5   c3.6,0,6.5-2.9,6.5-6.5S122.6,77.5,119,77.5z M15.8,53.6C19,24.8,47.4,20.5,64,20.5s45,4.3,48.2,33.1c0.1,1-0.2,2-0.9,2.8   c-0.7,0.8-1.6,1.2-2.6,1.2H19.3c-1,0-1.9-0.4-2.6-1.2C16,55.6,15.7,54.6,15.8,53.6z M5.5,64c0-1.9,1.6-3.5,3.5-3.5h10.3h89.4H119   c1.9,0,3.5,1.6,3.5,3.5c0,1.9-1.6,3.5-3.5,3.5H9C7.1,67.5,5.5,65.9,5.5,64z M15.5,70.5h97v7h-97V70.5z M112.5,99   c0,4.7-3.8,8.5-8.5,8.5H24c-4.7,0-8.5-3.8-8.5-8.5v-8.5h97V99z M119,87.5H9c-1.9,0-3.5-1.6-3.5-3.5s1.6-3.5,3.5-3.5h110   c1.9,0,3.5,1.6,3.5,3.5S120.9,87.5,119,87.5z" fill="#62345B"/><g><path d="M41,34.7c-1.5,0-2.8-1.2-2.8-2.8s1.2-2.8,2.8-2.8s2.8,1.2,2.8,2.8S42.5,34.7,41,34.7z" fill="#62345B"/></g><g><path d="M51,49.7c-1.5,0-2.8-1.2-2.8-2.8s1.2-2.8,2.8-2.8s2.8,1.2,2.8,2.8S52.5,49.7,51,49.7z" fill="#62345B"/></g><g><path d="M100,46.7c-1.5,0-2.8-1.2-2.8-2.8s1.2-2.8,2.8-2.8s2.8,1.2,2.8,2.8S101.5,46.7,100,46.7z" fill="#62345B"/></g><g><path d="M31,51.7c-1.5,0-2.8-1.2-2.8-2.8s1.2-2.8,2.8-2.8s2.8,1.2,2.8,2.8S32.5,51.7,31,51.7z" fill="#62345B"/></g></g></svg>